<svg width="111" height="59" viewBox="0 0 111 59" fill="none" xmlns="http://www.w3.org/2000/svg">
<path d="M49.3349 33.1065C49.7787 33.1065 50.1287 33.2175 50.3848 33.4394C50.6409 33.6443 50.7689 33.9687 50.7689 34.4125C50.7689 34.8735 50.6238 35.2405 50.3336 35.5137C50.0604 35.7698 49.7275 35.8978 49.3349 35.8978H34.8152C34.3713 35.8978 34.0213 35.7612 33.7652 35.4881C33.5262 35.2149 33.4067 34.8564 33.4067 34.4125C33.4067 33.5419 33.8762 33.1065 34.8152 33.1065H37.5296C37.5125 33.0895 37.4869 33.0212 37.4528 32.9017C37.2821 32.5261 37.1284 32.159 36.9918 31.8005C36.8553 31.4249 36.6504 30.9896 36.3773 30.4945C36.1895 30.136 36.0956 29.8202 36.0956 29.547C36.1126 29.2739 36.2663 29.0178 36.5565 28.7788H35.6858C34.7469 28.7788 34.2774 28.2837 34.2774 27.2935C34.2774 26.8326 34.3884 26.5082 34.6103 26.3204C34.8322 26.1326 35.1908 26.0387 35.6858 26.0387H40.4489C40.1928 25.5437 40.0733 25.1169 40.0904 24.7583C40.1245 24.3998 40.3465 24.0669 40.7562 23.7596C41.183 23.4694 41.6098 23.3584 42.0366 23.4267C42.4634 23.495 42.8475 23.8365 43.189 24.4511C43.3085 24.6388 43.4194 24.8779 43.5219 25.1681C43.6414 25.4412 43.7694 25.7315 43.906 26.0387H48.7203C49.2154 26.0387 49.5739 26.1241 49.7958 26.2948C50.0348 26.4655 50.1543 26.7984 50.1543 27.2935C50.1543 27.7886 50.0263 28.1642 49.7702 28.4203C49.5141 28.6593 49.1641 28.7788 48.7203 28.7788H47.5423C47.7301 28.9324 47.8411 29.1544 47.8752 29.4446C47.9093 29.7177 47.8325 30.0763 47.6447 30.5201C47.5082 30.9128 47.3545 31.331 47.1838 31.7749C47.0301 32.2188 46.8424 32.6627 46.6204 33.1065H49.3349ZM49.1556 44.4508C49.1556 45.0142 49.1215 45.4837 49.0532 45.8593C48.9849 46.2349 48.8483 46.5336 48.6434 46.7555C48.4556 46.9775 48.1825 47.1311 47.824 47.2165C47.4655 47.3189 47.0045 47.3701 46.4412 47.3701H37.5296C37.0004 47.3701 36.565 47.3275 36.2236 47.2421C35.8822 47.1738 35.609 47.0287 35.4042 46.8068C35.1993 46.6019 35.0542 46.3031 34.9688 45.9105C34.9005 45.5349 34.8664 45.0484 34.8664 44.4508V40.3536C34.8664 39.7561 34.9005 39.2695 34.9688 38.8939C35.0371 38.5183 35.1651 38.2281 35.3529 38.0232C35.5578 37.8184 35.8309 37.6818 36.1724 37.6135C36.5309 37.5282 36.9833 37.4855 37.5296 37.4855H46.4412C47.0216 37.4855 47.4911 37.5367 47.8496 37.6391C48.2081 37.7245 48.4813 37.8781 48.669 38.1001C48.8739 38.3049 49.002 38.5952 49.0532 38.9707C49.1215 39.3293 49.1556 39.7902 49.1556 40.3536V44.4508ZM32.0239 46.3714C32.0239 46.9177 31.8959 47.3189 31.6398 47.575C31.3837 47.8311 31.0252 47.9591 30.5643 47.9591C30.018 47.9591 29.6509 47.8311 29.4631 47.575C29.2753 47.3189 29.1814 46.9177 29.1814 46.3714V36.8709C28.7376 37.4684 28.3193 37.7928 27.9266 37.844C27.534 37.8781 27.1669 37.7501 26.8255 37.4599C26.3987 37.1697 26.1853 36.8111 26.1853 36.3843C26.2024 35.9405 26.4585 35.36 26.9535 34.643C27.9779 33.1919 28.7973 31.7066 29.4119 30.1872C30.0265 28.6508 30.5386 27.0033 30.9484 25.2449C31.0849 24.5962 31.2642 24.1182 31.4861 23.8109C31.7251 23.4865 32.1434 23.3584 32.7409 23.4267C33.8677 23.5804 34.2262 24.4169 33.8165 25.9363C33.5262 26.9777 33.236 27.9423 32.9458 28.83C32.6726 29.7007 32.3653 30.5457 32.0239 31.3652V46.3714ZM46.2363 40.8401C46.2363 40.7035 46.1936 40.6096 46.1083 40.5584C46.04 40.4901 45.9631 40.456 45.8778 40.456H38.1186C38.0162 40.456 37.9223 40.4901 37.8369 40.5584C37.7686 40.6267 37.7345 40.7206 37.7345 40.8401V44.1179C37.7345 44.1521 37.7686 44.1948 37.8369 44.246C37.9052 44.3143 37.9735 44.3484 38.0418 44.3484H45.9546C46.0229 44.3484 46.0826 44.3143 46.1339 44.246C46.2022 44.1948 46.2363 44.135 46.2363 44.0667V40.8401ZM40.1672 31.8005C40.2526 32.0225 40.3123 32.2615 40.3465 32.5175C40.3977 32.7566 40.4148 32.9529 40.3977 33.1065H43.5731C43.6072 32.987 43.6584 32.8248 43.7267 32.62C43.795 32.398 43.8889 32.1932 44.0084 32.0054C44.145 31.7152 44.3072 31.3481 44.495 30.9042C44.6998 30.4604 44.8705 30.0421 45.0071 29.6495C45.0925 29.4617 45.1693 29.2995 45.2376 29.1629C45.3059 29.0093 45.3827 28.8812 45.4681 28.7788H38.4771C38.682 28.9837 38.8698 29.2312 39.0405 29.5214C39.3136 29.9994 39.5356 30.4177 39.7063 30.7762C39.877 31.1176 40.0306 31.4591 40.1672 31.8005Z" fill="white"/>
<path d="M65.4678 27.5752C65.3995 27.7801 65.3227 28.0191 65.2374 28.2922C65.1691 28.5483 65.0837 28.8129 64.9813 29.0861C64.8959 29.3422 64.8106 29.5982 64.7252 29.8543C64.6398 30.1104 64.546 30.3409 64.4435 30.5457H72.7661C73.688 30.5457 74.3282 30.7335 74.6867 31.1091C75.0623 31.4676 75.2501 32.1334 75.2501 33.1065V43.8875C75.2501 44.7752 75.1903 45.4922 75.0708 46.0385C74.9513 46.6019 74.7294 47.0287 74.405 47.3189C74.0806 47.6262 73.6282 47.8055 73.0478 47.8567C72.4844 47.9079 71.7503 47.8738 70.8455 47.7543C69.531 47.5835 69.0444 46.9177 69.3858 45.7568C69.5224 45.2105 69.7529 44.8862 70.0773 44.7837C70.4016 44.6813 70.837 44.7325 71.3833 44.9374C71.7247 45.074 71.9466 45.074 72.0491 44.9374C72.1686 44.8008 72.2283 44.3911 72.2283 43.7082V34.0284C72.2283 33.7894 72.1942 33.6443 72.1259 33.5931C72.0747 33.5248 71.9381 33.4906 71.7162 33.4906H68.8481V45.9361C68.8481 46.5165 68.7371 46.9092 68.5152 47.1141C68.2932 47.3189 67.9262 47.4214 67.414 47.4214C66.8848 47.4214 66.5007 47.3189 66.2617 47.1141C66.0227 46.9092 65.9032 46.5165 65.9032 45.9361V33.4906H62.3437V46.0385C62.3437 46.5848 62.2156 46.9689 61.9596 47.1909C61.7205 47.4299 61.3535 47.5494 60.8584 47.5494C60.3633 47.5494 59.9877 47.4299 59.7317 47.1909C59.4756 46.9689 59.3475 46.5848 59.3475 46.0385V33.4906H56.4795C56.3087 33.4906 56.1892 33.5163 56.1209 33.5675C56.0697 33.6187 56.0441 33.7297 56.0441 33.9004V46.6275C56.0441 47.0885 55.9332 47.4214 55.7112 47.6262C55.4893 47.8311 55.071 47.9335 54.4564 47.9335C53.876 47.9335 53.4919 47.8311 53.3041 47.6262C53.1163 47.4384 53.0224 47.1055 53.0224 46.6275V33.1065C53.0224 32.1505 53.1931 31.4847 53.5345 31.1091C53.8931 30.7335 54.5589 30.5457 55.532 30.5457H60.8328C60.9694 30.3409 61.0974 30.1104 61.2169 29.8543C61.3364 29.5982 61.4474 29.3422 61.5498 29.0861C61.6523 28.8129 61.7462 28.5483 61.8315 28.2922C61.9339 28.0191 62.0364 27.7801 62.1388 27.5752H53.4833C52.8687 27.5752 52.4761 27.4557 52.3054 27.2167C52.1347 26.9606 52.0493 26.6107 52.0493 26.1668C52.0493 25.7058 52.1261 25.3388 52.2798 25.0656C52.4505 24.7754 52.8517 24.6303 53.4833 24.6303H74.7635C75.344 24.6303 75.7281 24.7754 75.9159 25.0656C76.1037 25.3388 76.1976 25.7058 76.1976 26.1668C76.1976 26.6107 76.1037 26.9606 75.9159 27.2167C75.7281 27.4557 75.344 27.5752 74.7635 27.5752H65.4678Z" fill="white"/>
<path d="M81.8287 30.6945C82.1007 30.4224 82.3727 30.3276 83.1888 30.2952C83.7172 30.2742 84.334 30.2611 84.9759 30.2709C86.7806 30.2986 99.0819 30.2709 99.0819 30.2709C99.7829 30.2709 100.347 30.313 100.775 30.3971C101.202 30.4643 101.535 30.6157 101.775 30.8512C102.014 31.0698 102.168 31.3894 102.237 31.8098C102.322 32.2135 102.365 32.7517 102.365 33.4245V35.9473C102.365 36.6369 102.322 37.1919 102.237 37.6124C102.168 38.0161 102.014 38.3356 101.775 38.5711C101.535 38.7897 101.202 38.9411 100.775 39.0252C100.347 39.0925 99.7829 39.1261 99.0819 39.1261H97.1584C97.2952 39.1766 97.4148 39.2439 97.5174 39.328C97.6371 39.4121 97.7568 39.5046 97.8765 39.6055C98.2868 40.0091 98.6716 40.4128 99.0306 40.8164C99.4068 41.2033 99.8171 41.7163 100.262 42.3554C100.587 42.7927 100.749 43.2132 100.749 43.6168C100.766 44.0036 100.552 44.3484 100.108 44.6512C99.6632 44.9539 99.2956 45.0464 99.005 44.9287C98.7314 44.811 98.4493 44.5419 98.1586 44.1214C97.7824 43.5832 97.4319 43.1291 97.1071 42.759C96.7993 42.389 96.4317 41.9854 96.0042 41.5481C95.5597 41.1108 95.3289 40.7323 95.3118 40.4128C95.3118 40.0932 95.4657 39.7652 95.7734 39.4289C95.9102 39.2943 96.0555 39.1934 96.2094 39.1261H94.2602V43.3645C94.2602 43.7177 94.2859 44.0036 94.3372 44.2223C94.3885 44.4409 94.474 44.6091 94.5936 44.7269C94.7304 44.8614 94.9185 44.9455 95.1579 44.9791C95.3973 45.0296 95.7136 45.0548 96.1068 45.0548H99.3897C99.8171 45.0548 100.151 45.0296 100.39 44.9791C100.646 44.9455 100.834 44.853 100.954 44.7016C101.091 44.5671 101.176 44.3568 101.211 44.0709C101.245 43.8018 101.262 43.4318 101.262 42.9609C101.262 42.4227 101.347 42.019 101.518 41.7499C101.689 41.4808 102.074 41.3462 102.673 41.3462C103.203 41.3462 103.579 41.4808 103.801 41.7499C104.023 42.0022 104.134 42.4479 104.134 43.087C104.134 43.9784 104.066 44.7353 103.929 45.3576C103.81 45.9799 103.57 46.4845 103.211 46.8713C102.869 47.2581 102.399 47.5356 101.801 47.7038C101.219 47.8888 100.467 47.9813 99.5436 47.9813H96.3377C95.2605 47.9813 94.397 47.9057 93.7473 47.7543C93.0976 47.6197 92.5932 47.3759 92.2341 47.0227C91.8921 46.6863 91.6613 46.2238 91.5416 45.6351C91.439 45.0632 91.3877 44.3316 91.3877 43.4402V39.6307C90.5499 41.4135 89.3702 43.0197 87.8484 44.4493C86.3438 45.8958 84.5143 47.1068 82.3599 48.0823C81.7786 48.3514 81.3084 48.4355 80.9493 48.3345C80.5903 48.2505 80.274 47.9982 80.0004 47.5777C79.7439 47.1236 79.6926 46.6947 79.8465 46.291C80.0004 45.9042 80.3766 45.5678 80.975 45.2819C82.5822 44.5755 84.0014 43.7345 85.2324 42.759C86.4635 41.7667 87.4637 40.5557 88.2331 39.1261H84.7964C84.0954 39.1261 83.5312 39.0925 83.1037 39.0252C82.6933 38.9411 82.3685 38.7897 82.1291 38.5711C81.9068 38.3356 81.7529 38.0161 81.6675 37.6124C81.5991 37.1919 81.5649 36.6369 81.5649 35.9473V31.8098C81.5649 31.8098 81.5566 30.9665 81.8287 30.6945ZM98.928 36.4267C99.1503 36.4267 99.2785 36.4099 99.3127 36.3762C99.364 36.3258 99.3897 36.208 99.3897 36.023V33.3488C99.3897 33.1638 99.364 33.0545 99.3127 33.0208C99.2785 32.9704 99.1503 32.9451 98.928 32.9451H93.0292C92.9779 33.5843 92.9095 34.1982 92.824 34.7868C92.7385 35.3755 92.6274 35.9221 92.4906 36.4267H98.928ZM84.5399 36.023C84.5399 36.208 84.557 36.3258 84.5912 36.3762C84.6425 36.4099 84.7708 36.4267 84.9759 36.4267H89.3873C89.5412 35.9221 89.6694 35.3671 89.772 34.7616C89.8917 34.1561 89.9857 33.5506 90.0541 32.9451H84.9759C84.7879 32.9451 84.6682 32.9788 84.6169 33.046C84.5656 33.0965 84.5399 33.1974 84.5399 33.3488V36.023Z" fill="white"/>
<path d="M88.4555 15.9505C89.9457 17.7954 93.3206 27.4025 91.606 27.7648C89.8914 28.1271 88.8571 21.6847 85.5172 19.1561C82.1773 16.6274 79.9774 20.0933 78.7581 16.9545C77.5387 13.8158 86.3885 13.3916 88.4555 15.9505Z" fill="white"/>
<path d="M102.766 21.833C100.483 22.3569 91.6833 27.6068 92.6475 28.864C93.6116 30.1212 98.6482 25.894 102.689 25.922C106.731 25.95 107.191 30.3162 108.918 28.1611C110.645 26.006 105.932 21.1064 102.766 21.833Z" fill="white"/>
<path fill-rule="evenodd" clip-rule="evenodd" d="M15.4659 13.7127C11.4663 16.0131 8.72386 20.5673 9.82353 26.6046C10.372 29.6157 12.0445 32.6547 14.3615 35.5648C16.6701 38.4643 19.5517 41.1524 22.3933 43.4581C25.2306 45.7603 27.9983 47.6574 30.0587 48.9796C31.0878 49.64 31.9377 50.1553 32.5281 50.5042C32.8232 50.6786 33.0534 50.8114 33.2084 50.8998C33.2858 50.944 33.3446 50.9771 33.3832 50.9988L33.426 51.0227L33.4358 51.0282L33.4377 51.0292C34.1254 51.4091 34.3752 52.2746 33.9954 52.9623C33.6156 53.6502 32.7501 53.8998 32.0623 53.52L32.75 52.2746C32.0623 53.52 32.0627 53.5203 32.0623 53.52L32.0563 53.5167L32.0423 53.5089L31.9911 53.4803C31.9467 53.4554 31.8821 53.419 31.7986 53.3713C31.6317 53.2761 31.3889 53.136 31.0805 52.9538C30.4638 52.5893 29.5838 52.0557 28.5219 51.3743C26.4003 50.0127 23.5415 48.054 20.6005 45.6676C17.664 43.2849 14.6156 40.4519 12.1356 37.3371C9.664 34.2329 7.68909 30.7645 7.02426 27.1145C5.69739 19.8298 9.06088 14.1141 14.0474 11.2462C18.9866 8.4055 25.5527 8.34661 30.6045 12.2816C31.2243 12.7644 31.3354 13.6583 30.8526 14.2782C30.3697 14.898 29.4758 15.0091 28.856 14.5263C24.8132 11.3772 19.5129 11.3851 15.4659 13.7127Z" fill="white"/>
<path fill-rule="evenodd" clip-rule="evenodd" d="M41.782 47.1667C41.2973 46.5483 40.4031 46.4399 39.7847 46.9246C37.9345 48.3748 36.2753 49.5327 35.0806 50.3268C34.4836 50.7236 34.0036 51.0289 33.675 51.2338C33.5107 51.3362 33.2903 51.47 33.2061 51.521L33.1839 51.5343L33.5714 51.3355C33.5714 51.3355 32.4835 50.2955 33.2061 51.521L34.6239 53.9883C33.9471 54.3874 33.0749 54.1623 32.6758 53.4854C32.2767 52.8087 32.8948 51.7347 33.5714 51.3355M33.2061 51.521C33.9287 52.7465 34.6239 53.9883 34.6239 53.9883L34.6278 53.986L34.6361 53.9811L34.6655 53.9636C34.6907 53.9485 34.7271 53.9266 34.7742 53.8981C34.8683 53.8411 35.0051 53.7575 35.1801 53.6484C35.5302 53.4302 36.0336 53.1099 36.6557 52.6964C37.8991 51.8699 39.6203 50.6686 41.5399 49.164C42.1583 48.6793 42.2667 47.7851 41.782 47.1667" fill="white"/>
<path fill-rule="evenodd" clip-rule="evenodd" d="M47.3883 10.6797C52.2329 12.4951 55.9405 17.1298 56.1051 24.0995C56.1236 24.885 56.7754 25.5067 57.5609 25.4882C58.3464 25.4696 58.9682 24.8178 58.9496 24.0323C58.7593 15.9726 54.3847 10.2629 48.3867 8.01534C42.4205 5.77969 35.0726 7.04933 29.0233 12.4088C28.4352 12.9299 28.3808 13.829 28.9019 14.4171C29.4229 15.0052 30.322 15.0596 30.9101 14.5385C36.257 9.80142 42.5119 8.85248 47.3883 10.6797Z" fill="white"/>
</svg>
