<svg width="7" height="12" viewBox="0 0 7 12" fill="none" xmlns="http://www.w3.org/2000/svg">
<path d="M6.31107 0.710022C6.40377 0.802536 6.47732 0.912424 6.5275 1.0334C6.57769 1.15437 6.60352 1.28405 6.60352 1.41502C6.60352 1.54599 6.57769 1.67567 6.5275 1.79665C6.47732 1.91762 6.40377 2.02751 6.31107 2.12002L2.43107 6.00002L6.31107 9.88002C6.49805 10.067 6.60309 10.3206 6.60309 10.585C6.60309 10.8494 6.49805 11.103 6.31107 11.29C6.12409 11.477 5.8705 11.582 5.60607 11.582C5.34165 11.582 5.08805 11.477 4.90107 11.29L0.311071 6.70002C0.218368 6.60751 0.14482 6.49762 0.0946388 6.37665C0.0444574 6.25567 0.0186281 6.12599 0.0186281 5.99502C0.0186281 5.86405 0.0444574 5.73437 0.0946388 5.6134C0.14482 5.49242 0.218368 5.38254 0.311071 5.29002L4.90107 0.700022C5.28107 0.320022 5.92107 0.320022 6.31107 0.710022Z" fill="#4F4F4F"/>
</svg>
