<svg width="13" height="7" viewBox="0 0 13 7" fill="none" xmlns="http://www.w3.org/2000/svg">
<path d="M6.49922 0.0249519C6.63255 0.0249519 6.76189 0.0499525 6.88722 0.0999527C7.01255 0.149953 7.11655 0.216619 7.19922 0.299953L11.7992 4.89995C11.9826 5.08329 12.0742 5.31662 12.0742 5.59995C12.0742 5.88329 11.9826 6.11662 11.7992 6.29995C11.6159 6.48329 11.3826 6.57495 11.0992 6.57495C10.8159 6.57495 10.5826 6.48329 10.3992 6.29995L6.49922 2.39995L2.59922 6.29995C2.41589 6.48329 2.18255 6.57495 1.89922 6.57495C1.61588 6.57495 1.38255 6.48329 1.19922 6.29995C1.01589 6.11662 0.924218 5.88329 0.924218 5.59995C0.924218 5.31662 1.01589 5.08328 1.19922 4.89995L5.79922 0.299952C5.89922 0.199953 6.00755 0.128952 6.12422 0.0869522C6.24089 0.0449524 6.36589 0.0242853 6.49922 0.0249519Z" fill="#333333"/>
</svg>
