<svg width="13" height="7" viewBox="0 0 13 7" fill="none" xmlns="http://www.w3.org/2000/svg">
<path d="M6.50078 6.97505C6.36745 6.97505 6.23811 6.95005 6.11278 6.90005C5.98745 6.85005 5.88345 6.78338 5.80078 6.70005L1.20078 2.10005C1.01745 1.91672 0.925781 1.68338 0.925781 1.40005C0.925781 1.11671 1.01745 0.883382 1.20078 0.700048C1.38411 0.516715 1.61745 0.425049 1.90078 0.425049C2.18411 0.425049 2.41745 0.516715 2.60078 0.700048L6.50078 4.60005L10.4008 0.700048C10.5841 0.516715 10.8174 0.425049 11.1008 0.425049C11.3841 0.425049 11.6174 0.516715 11.8008 0.700048C11.9841 0.883382 12.0758 1.11671 12.0758 1.40005C12.0758 1.68338 11.9841 1.91672 11.8008 2.10005L7.20078 6.70005C7.10078 6.80005 6.99245 6.87105 6.87578 6.91305C6.75911 6.95505 6.63411 6.97572 6.50078 6.97505Z" fill="#333333"/>
</svg>
