<svg width="64" height="64" viewBox="0 0 64 64" fill="none" xmlns="http://www.w3.org/2000/svg">
<circle cx="32" cy="32" r="32" fill="#F2F2F2"/>
<path d="M41.7928 39.8414H22.0854C19.9786 39.8281 17.951 39.0364 16.3926 37.6185C14.8341 36.2007 13.8548 34.2568 13.6429 32.1606C13.431 30.0644 14.0015 27.9639 15.2446 26.2628C16.4878 24.5618 18.3159 23.3803 20.3774 22.9456C20.9446 20.3002 22.4018 17.9294 24.5059 16.2286C26.6099 14.5279 29.2336 13.6001 31.9391 13.6001C34.6446 13.6001 37.2683 14.5279 39.3723 16.2286C41.4764 17.9294 42.9336 20.3002 43.5008 22.9456C45.5623 23.3803 47.3904 24.5618 48.6336 26.2628C49.8767 27.9639 50.4472 30.0644 50.2353 32.1606C50.0234 34.2568 49.0441 36.2007 47.4856 37.6185C45.9272 39.0364 43.8996 39.8281 41.7928 39.8414ZM31.9391 16.1925C29.6972 16.1948 27.5334 17.0158 25.8543 18.5013C24.1752 19.9869 23.0966 22.0345 22.8211 24.2594L22.7423 25.3893H21.6124C20.0444 25.452 18.5655 26.1351 17.5011 27.2882C16.4367 28.4413 15.874 29.97 15.9367 31.538C15.9994 33.106 16.6825 34.5849 17.8356 35.6493C18.9887 36.7137 20.5174 37.2765 22.0854 37.2138H41.7928C43.3608 37.2765 44.8895 36.7137 46.0426 35.6493C47.1957 34.5849 47.8788 33.106 47.9415 31.538C48.0042 29.97 47.4415 28.4413 46.3771 27.2882C45.3127 26.1351 43.8338 25.452 42.2658 25.3893H41.1359L41.0045 24.312C40.7421 22.0865 39.6761 20.0334 38.0069 18.5384C36.3376 17.0433 34.1799 16.2091 31.9391 16.1925ZM29.3114 50.352C29.1053 50.3545 28.902 50.3048 28.7202 50.2075C28.4108 50.05 28.1763 49.7764 28.068 49.4465C27.9596 49.1166 27.9863 48.7572 28.1421 48.447L30.7698 43.1917C30.8392 43.0249 30.9424 42.8742 31.0727 42.7491C31.203 42.6239 31.3577 42.527 31.5272 42.4644C31.6966 42.4017 31.8772 42.3747 32.0576 42.385C32.2379 42.3953 32.4143 42.4427 32.5755 42.5242C32.7367 42.6058 32.8794 42.7197 32.9946 42.8588C33.1098 42.998 33.1951 43.1594 33.2451 43.333C33.2952 43.5066 33.3088 43.6887 33.2853 43.8678C33.2618 44.0469 33.2016 44.2193 33.1084 44.3741L30.4808 49.6294C30.3716 49.8461 30.2045 50.0283 29.9981 50.1558C29.7917 50.2834 29.5541 50.3513 29.3114 50.352ZM37.1944 50.352C36.9883 50.3545 36.7849 50.3048 36.6032 50.2075C36.2937 50.05 36.0592 49.7764 35.9509 49.4465C35.8426 49.1166 35.8693 48.7572 36.0251 48.447L38.6528 43.1917C38.7222 43.0249 38.8253 42.8742 38.9556 42.7491C39.0859 42.6239 39.2407 42.527 39.4101 42.4644C39.5796 42.4017 39.7602 42.3747 39.9405 42.385C40.1209 42.3953 40.2972 42.4427 40.4584 42.5242C40.6197 42.6058 40.7624 42.7197 40.8776 42.8588C40.9928 42.998 41.0781 43.1594 41.1281 43.333C41.1781 43.5066 41.1918 43.6887 41.1683 43.8678C41.1447 44.0469 41.0845 44.2193 40.9914 44.3741L38.3637 49.6294C38.2545 49.8461 38.0875 50.0283 37.8811 50.1558C37.6747 50.2834 37.437 50.3513 37.1944 50.352ZM21.4285 50.352C21.2224 50.3545 21.019 50.3048 20.8373 50.2075C20.5278 50.05 20.2933 49.7764 20.185 49.4465C20.0767 49.1166 20.1034 48.7572 20.2592 48.447L22.8868 43.1917C22.9563 43.0249 23.0594 42.8742 23.1897 42.7491C23.32 42.6239 23.4748 42.527 23.6442 42.4644C23.8137 42.4017 23.9942 42.3747 24.1746 42.385C24.355 42.3953 24.5313 42.4427 24.6925 42.5242C24.8538 42.6058 24.9964 42.7197 25.1117 42.8588C25.2269 42.998 25.3122 43.1594 25.3622 43.333C25.4122 43.5066 25.4259 43.6887 25.4023 43.8678C25.3788 44.0469 25.3186 44.2193 25.2254 44.3741L22.5978 49.6294C22.4886 49.8461 22.3216 50.0283 22.1152 50.1558C21.9088 50.2834 21.6711 50.3513 21.4285 50.352Z" fill="#BDBDBD"/>
</svg>
