<svg width="64" height="64" viewBox="0 0 64 64" fill="none" xmlns="http://www.w3.org/2000/svg">
<circle cx="32" cy="32" r="32" fill="#FDEDED"/>
<path fill-rule="evenodd" clip-rule="evenodd" d="M31.9933 25.9861L29.9727 23.871C28.3561 22.1788 25.9941 20.3946 23.6253 20.3946C21.1865 20.3946 19.2841 21.2331 17.9982 22.5167C16.7126 23.7999 15.8746 25.696 15.8746 28.1246C15.8746 30.7243 16.8759 32.9361 18.6033 35.0899C20.3844 37.3105 22.7905 39.2966 25.4446 41.4713L25.577 41.5799C27.6771 43.3024 30.0232 45.2266 31.9946 47.37C33.9857 45.207 36.3551 43.2666 38.4749 41.5305L38.5472 41.4713C41.2005 39.2973 43.6073 37.3115 45.3889 35.0908C47.117 32.937 48.1189 30.7249 48.1189 28.1246C48.1189 25.696 47.2809 23.7998 45.9954 22.5166C44.7096 21.233 42.8076 20.3946 40.3699 20.3946C37.9977 20.3946 35.6283 22.1811 34.0139 23.871L31.9933 25.9861ZM40.3183 43.6329C37.8575 45.6483 35.314 47.7343 33.3587 50.0456C33.032 50.4308 32.5522 50.6561 32.0449 50.6561H31.9451C31.4396 50.6561 30.958 50.4325 30.6296 50.0456C28.6872 47.7455 26.1572 45.6702 23.7091 43.6621L23.6734 43.6329C18.4644 39.3646 13.0801 34.9518 13.0801 28.1246C13.0801 21.9286 17.4154 17.6001 23.6253 17.6001C26.4403 17.6001 28.932 19.1687 30.6942 20.6995C31.1873 21.1279 31.6233 21.5533 31.9933 21.9406C32.3609 21.5558 32.794 21.1333 33.2838 20.7077C35.0485 19.1743 37.5485 17.6001 40.3699 17.6001C46.578 17.6001 50.9134 21.9286 50.9134 28.1246C50.9134 34.9518 45.5284 39.364 40.3224 43.6295L40.3183 43.6329Z" fill="#F36B6B"/>
</svg>
