<svg width="32" height="32" viewBox="0 0 32 32" fill="none" xmlns="http://www.w3.org/2000/svg">
<path d="M26.6673 16V29.3333H5.33398V16" stroke="#F36B6B" stroke-width="3" stroke-linecap="round" stroke-linejoin="round"/>
<path d="M29.3327 9.33325H2.66602V15.9999H29.3327V9.33325Z" stroke="#F36B6B" stroke-width="3" stroke-linecap="round" stroke-linejoin="round"/>
<path d="M16 29.3333V9.33325" stroke="#F36B6B" stroke-width="3" stroke-linecap="round" stroke-linejoin="round"/>
<path d="M15.9993 9.33341H9.99935C9.11529 9.33341 8.26745 8.98222 7.64233 8.3571C7.01721 7.73198 6.66602 6.88414 6.66602 6.00008C6.66602 5.11603 7.01721 4.26818 7.64233 3.64306C8.26745 3.01794 9.11529 2.66675 9.99935 2.66675C14.666 2.66675 15.9993 9.33341 15.9993 9.33341Z" stroke="#F36B6B" stroke-width="3" stroke-linecap="round" stroke-linejoin="round"/>
<path d="M16 9.33341H22C22.8841 9.33341 23.7319 8.98222 24.357 8.3571C24.9821 7.73198 25.3333 6.88414 25.3333 6.00008C25.3333 5.11603 24.9821 4.26818 24.357 3.64306C23.7319 3.01794 22.8841 2.66675 22 2.66675C17.3333 2.66675 16 9.33341 16 9.33341Z" stroke="#F36B6B" stroke-width="3" stroke-linecap="round" stroke-linejoin="round"/>
</svg>
