<svg width="32" height="32" viewBox="0 0 32 32" fill="none" xmlns="http://www.w3.org/2000/svg">
<path d="M16 30.5C7.99165 30.5 1.5 24.0084 1.5 16C1.5 7.99165 7.99165 1.5 16 1.5C24.0084 1.5 30.5 7.99165 30.5 16C30.5 24.0084 24.0084 30.5 16 30.5ZM16 27.6C19.0765 27.6 22.027 26.3779 24.2024 24.2024C26.3779 22.027 27.6 19.0765 27.6 16C27.6 12.9235 26.3779 9.97298 24.2024 7.79756C22.027 5.62214 19.0765 4.4 16 4.4C12.9235 4.4 9.97298 5.62214 7.79756 7.79756C5.62214 9.97298 4.4 12.9235 4.4 16C4.4 19.0765 5.62214 22.027 7.79756 24.2024C9.97298 26.3779 12.9235 27.6 16 27.6ZM10.925 18.9H18.9C19.0923 18.9 19.2767 18.8236 19.4127 18.6877C19.5486 18.5517 19.625 18.3673 19.625 18.175C19.625 17.9827 19.5486 17.7983 19.4127 17.6623C19.2767 17.5264 19.0923 17.45 18.9 17.45H13.1C12.1386 17.45 11.2166 17.0681 10.5367 16.3883C9.85692 15.7084 9.475 14.7864 9.475 13.825C9.475 12.8636 9.85692 11.9416 10.5367 11.2617C11.2166 10.5819 12.1386 10.2 13.1 10.2H14.55V7.3H17.45V10.2H21.075V13.1H13.1C12.9077 13.1 12.7233 13.1764 12.5873 13.3123C12.4514 13.4483 12.375 13.6327 12.375 13.825C12.375 14.0173 12.4514 14.2017 12.5873 14.3377C12.7233 14.4736 12.9077 14.55 13.1 14.55H18.9C19.8614 14.55 20.7834 14.9319 21.4633 15.6117C22.1431 16.2916 22.525 17.2136 22.525 18.175C22.525 19.1364 22.1431 20.0584 21.4633 20.7383C20.7834 21.4181 19.8614 21.8 18.9 21.8H17.45V24.7H14.55V21.8H10.925V18.9Z" fill="#F36B6B"/>
</svg>
