<svg width="64" height="64" viewBox="0 0 64 64" fill="none" xmlns="http://www.w3.org/2000/svg">
<circle cx="32" cy="32" r="32" fill="#F3E3F5"/>
<path d="M30.3992 14.4V12.8C30.3992 12.3756 30.5678 11.9686 30.8678 11.6686C31.1679 11.3685 31.5749 11.2 31.9992 11.2C32.4236 11.2 32.8305 11.3685 33.1306 11.6686C33.4306 11.9686 33.5992 12.3756 33.5992 12.8V14.4C33.5992 14.8243 33.4306 15.2313 33.1306 15.5313C32.8305 15.8314 32.4236 16 31.9992 16C31.5749 16 31.1679 15.8314 30.8678 15.5313C30.5678 15.2313 30.3992 14.8243 30.3992 14.4ZM44.7992 32C44.7992 34.5316 44.0485 37.0063 42.642 39.1112C41.2355 41.2162 39.2365 42.8568 36.8976 43.8256C34.5587 44.7944 31.985 45.0479 29.5021 44.554C27.0191 44.0601 24.7384 42.841 22.9483 41.0509C21.1581 39.2608 19.9391 36.9801 19.4452 34.4971C18.9513 32.0141 19.2048 29.4405 20.1736 27.1016C21.1424 24.7627 22.783 22.7636 24.8879 21.3571C26.9929 19.9507 29.4676 19.2 31.9992 19.2C35.3929 19.2037 38.6464 20.5534 41.0461 22.9531C43.4458 25.3527 44.7955 28.6063 44.7992 32ZM41.5992 32C41.5992 30.1012 41.0362 28.2452 39.9813 26.6665C38.9265 25.0878 37.4271 23.8573 35.673 23.1307C33.9188 22.4041 31.9886 22.214 30.1264 22.5844C28.2641 22.9548 26.5536 23.8691 25.211 25.2117C23.8684 26.5543 22.9541 28.2649 22.5837 30.1271C22.2133 31.9893 22.4034 33.9195 23.13 35.6737C23.8566 37.4279 25.087 38.9272 26.6657 39.9821C28.2445 41.0369 30.1005 41.5999 31.9992 41.5999C34.5445 41.5973 36.9847 40.585 38.7845 38.7853C40.5843 36.9855 41.5966 34.5452 41.5992 32ZM18.0672 20.332C18.3674 20.6322 18.7746 20.8008 19.1992 20.8008C19.6238 20.8008 20.031 20.6322 20.3312 20.332C20.6314 20.0317 20.8001 19.6245 20.8001 19.2C20.8001 18.7754 20.6314 18.3682 20.3312 18.068L18.7312 16.468C18.431 16.1677 18.0238 15.9991 17.5992 15.9991C17.1746 15.9991 16.7674 16.1677 16.4672 16.468C16.167 16.7682 15.9983 17.1754 15.9983 17.6C15.9983 18.0245 16.167 18.4317 16.4672 18.732L18.0672 20.332ZM18.0672 43.6679L16.4672 45.2679C16.167 45.5682 15.9983 45.9754 15.9983 46.3999C15.9983 46.8245 16.167 47.2317 16.4672 47.5319C16.7674 47.8322 17.1746 48.0008 17.5992 48.0008C18.0238 48.0008 18.431 47.8322 18.7312 47.5319L20.3312 45.9319C20.4799 45.7833 20.5978 45.6068 20.6782 45.4126C20.7587 45.2184 20.8001 45.0102 20.8001 44.7999C20.8001 44.5897 20.7587 44.3815 20.6782 44.1873C20.5978 43.9931 20.4799 43.8166 20.3312 43.6679C20.1826 43.5193 20.0061 43.4014 19.8119 43.3209C19.6176 43.2405 19.4095 43.1991 19.1992 43.1991C18.989 43.1991 18.7808 43.2405 18.5866 43.3209C18.3924 43.4014 18.2159 43.5193 18.0672 43.6679ZM44.7992 20.8C45.0094 20.8001 45.2175 20.7589 45.4118 20.6786C45.606 20.5983 45.7825 20.4805 45.9312 20.332L47.5312 18.732C47.8314 18.4317 48.0001 18.0245 48.0001 17.6C48.0001 17.1754 47.8314 16.7682 47.5312 16.468C47.231 16.1677 46.8238 15.9991 46.3992 15.9991C45.9746 15.9991 45.5674 16.1677 45.2672 16.468L43.6672 18.068C43.4432 18.2917 43.2906 18.5769 43.2288 18.8875C43.1669 19.198 43.1986 19.5199 43.3198 19.8124C43.441 20.1049 43.6463 20.3549 43.9096 20.5307C44.173 20.7065 44.4826 20.8002 44.7992 20.8ZM45.9312 43.6679C45.631 43.3677 45.2238 43.1991 44.7992 43.1991C44.3746 43.1991 43.9674 43.3677 43.6672 43.6679C43.367 43.9682 43.1983 44.3754 43.1983 44.7999C43.1983 45.2245 43.367 45.6317 43.6672 45.9319L45.2672 47.5319C45.4159 47.6806 45.5924 47.7985 45.7866 47.879C45.9808 47.9594 46.189 48.0008 46.3992 48.0008C46.6094 48.0008 46.8176 47.9594 47.0119 47.879C47.2061 47.7985 47.3826 47.6806 47.5312 47.5319C47.6799 47.3833 47.7978 47.2068 47.8782 47.0126C47.9587 46.8184 48.0001 46.6102 48.0001 46.3999C48.0001 46.1897 47.9587 45.9815 47.8782 45.7873C47.7978 45.5931 47.6799 45.4166 47.5312 45.2679L45.9312 43.6679ZM14.3992 30.4H12.7992C12.3749 30.4 11.9679 30.5685 11.6678 30.8686C11.3678 31.1686 11.1992 31.5756 11.1992 32C11.1992 32.4243 11.3678 32.8313 11.6678 33.1313C11.9679 33.4314 12.3749 33.5999 12.7992 33.5999H14.3992C14.8236 33.5999 15.2305 33.4314 15.5306 33.1313C15.8306 32.8313 15.9992 32.4243 15.9992 32C15.9992 31.5756 15.8306 31.1686 15.5306 30.8686C15.2305 30.5685 14.8236 30.4 14.3992 30.4ZM31.9992 48C31.5749 48 31.1679 48.1685 30.8678 48.4686C30.5678 48.7686 30.3992 49.1756 30.3992 49.5999V51.1999C30.3992 51.6243 30.5678 52.0313 30.8678 52.3313C31.1679 52.6314 31.5749 52.7999 31.9992 52.7999C32.4236 52.7999 32.8305 52.6314 33.1306 52.3313C33.4306 52.0313 33.5992 51.6243 33.5992 51.1999V49.5999C33.5992 49.1756 33.4306 48.7686 33.1306 48.4686C32.8305 48.1685 32.4236 48 31.9992 48ZM51.1992 30.4H49.5992C49.1749 30.4 48.7679 30.5685 48.4678 30.8686C48.1678 31.1686 47.9992 31.5756 47.9992 32C47.9992 32.4243 48.1678 32.8313 48.4678 33.1313C48.7679 33.4314 49.1749 33.5999 49.5992 33.5999H51.1992C51.6236 33.5999 52.0305 33.4314 52.3306 33.1313C52.6306 32.8313 52.7992 32.4243 52.7992 32C52.7992 31.5756 52.6306 31.1686 52.3306 30.8686C52.0305 30.5685 51.6236 30.4 51.1992 30.4Z" fill="#9D1EAD"/>
<circle cx="32" cy="32" r="10" fill="#F3E3F5"/>
</svg>
