<svg xmlns="http://www.w3.org/2000/svg" width="96" height="96" viewBox="0 0 96 96" version="1.1">
	<path d="M 36.112 1.581 C 10.832 8.379, -4.929 34.658, 1.492 59.307 C 4.560 71.086, 12.261 81.964, 21.896 88.126 C 26.837 91.286, 28 91.100, 28 87.152 C 28 85.651, 28.864 82.728, 29.920 80.656 L 31.841 76.890 29.421 75.970 C 28.090 75.464, 26.141 73.636, 25.090 71.907 C 20.452 64.282, 21.690 56.258, 28.562 49.385 C 32.210 45.737, 33.003 44.284, 33.017 41.224 C 33.045 35.352, 35.700 24.306, 38.119 20.003 C 42.157 12.817, 51 11.174, 51 17.609 C 51 20.889, 46.448 34.516, 43.895 38.876 C 42.808 40.733, 42.050 42.358, 42.209 42.488 C 42.369 42.618, 44.975 42.965, 48 43.259 L 53.500 43.795 56.879 36.689 C 60.647 28.764, 69.958 18.551, 74.441 17.425 C 78.056 16.518, 82 18.407, 82 21.044 C 82 26.866, 71.406 39.276, 60.127 46.668 C 59.922 46.803, 61.165 49.043, 62.890 51.647 C 69.067 60.973, 69.059 69.461, 62.869 74.306 L 59.785 76.719 62.288 80.609 C 63.665 82.749, 65.320 86.180, 65.968 88.234 L 67.144 91.967 71.278 89.858 C 81.489 84.649, 92.949 69.424, 94.646 58.815 C 94.985 56.692, 95.654 54.714, 96.131 54.419 C 96.609 54.124, 97 50.732, 97 46.882 C 97 43.032, 96.606 40.125, 96.125 40.423 C 95.644 40.720, 94.975 39.245, 94.639 37.145 C 94.303 35.044, 92.453 30.177, 90.528 26.328 C 80.669 6.621, 57.146 -4.076, 36.112 1.581 M 0.336 48 C 0.336 52.125, 0.513 53.813, 0.728 51.750 C 0.944 49.688, 0.944 46.313, 0.728 44.250 C 0.513 42.188, 0.336 43.875, 0.336 48 M 31.700 56.341 C 31.417 57.078, 31.575 58.312, 32.051 59.082 C 33.218 60.970, 35.508 58.766, 34.664 56.567 C 33.927 54.647, 32.394 54.530, 31.700 56.341 M 48.639 56.694 C 47.403 57.930, 48.017 61, 49.500 61 C 50.325 61, 51 60.127, 51 59.059 C 51 56.972, 49.682 55.651, 48.639 56.694 M 38.015 62.750 C 38.024 63.163, 38.411 64.100, 38.876 64.834 C 39.565 65.921, 39.827 65.893, 40.292 64.682 C 40.606 63.864, 40.593 62.927, 40.264 62.598 C 39.424 61.757, 37.997 61.853, 38.015 62.750" stroke="none" fill="black" fill-rule="evenodd"/>
</svg>